<?xml version="1.0" encoding="UTF-8" standalone="no"?>
<!-- Created with Inkscape (http://www.inkscape.org/) -->

<svg
   version="1.1"
   id="svg1"
   width="1015.5142"
   height="330.66663"
   viewBox="0 0 1015.5142 330.66663"
   sodipodi:docname="feelfalt_logo.pdf"
   xmlns:inkscape="http://www.inkscape.org/namespaces/inkscape"
   xmlns:sodipodi="http://sodipodi.sourceforge.net/DTD/sodipodi-0.dtd"
   xmlns="http://www.w3.org/2000/svg"
   xmlns:svg="http://www.w3.org/2000/svg">
  <defs
     id="defs1">
    <clipPath
       clipPathUnits="userSpaceOnUse"
       id="clipPath41">
      <path
         d="M 0,1920 H 1080 V 0 H 0 Z"
         transform="translate(-417.91824,-1020.7566)"
         id="path41" />
    </clipPath>
    <clipPath
       clipPathUnits="userSpaceOnUse"
       id="clipPath43">
      <path
         d="M 0,1920 H 1080 V 0 H 0 Z"
         transform="translate(-508.89774,-992.6686)"
         id="path43" />
    </clipPath>
    <clipPath
       clipPathUnits="userSpaceOnUse"
       id="clipPath45">
      <path
         d="M 0,1920 H 1080 V 0 H 0 Z"
         transform="translate(-594.58374,-992.6686)"
         id="path45" />
    </clipPath>
    <clipPath
       clipPathUnits="userSpaceOnUse"
       id="clipPath47">
      <path
         d="M 0,1920 H 1080 V 0 H 0 Z"
         id="path47" />
    </clipPath>
    <clipPath
       clipPathUnits="userSpaceOnUse"
       id="clipPath49">
      <path
         d="M 0,1920 H 1080 V 0 H 0 Z"
         transform="translate(-700.82589,-1020.7566)"
         id="path49" />
    </clipPath>
    <clipPath
       clipPathUnits="userSpaceOnUse"
       id="clipPath51">
      <path
         d="M 0,1920 H 1080 V 0 H 0 Z"
         transform="translate(-791.80539,-968.44795)"
         id="path51" />
    </clipPath>
    <clipPath
       clipPathUnits="userSpaceOnUse"
       id="clipPath53">
      <path
         d="M 0,1920 H 1080 V 0 H 0 Z"
         id="path53" />
    </clipPath>
    <clipPath
       clipPathUnits="userSpaceOnUse"
       id="clipPath55">
      <path
         d="M 0,1920 H 1080 V 0 H 0 Z"
         transform="translate(-919.01155,-929.77705)"
         id="path55" />
    </clipPath>
    <clipPath
       clipPathUnits="userSpaceOnUse"
       id="clipPath57">
      <path
         d="M 0,1920 H 1080 V 0 H 0 Z"
         transform="translate(-650.21259,-881.94775)"
         id="path57" />
    </clipPath>
    <clipPath
       clipPathUnits="userSpaceOnUse"
       id="clipPath59">
      <path
         d="M 0,1920 H 1080 V 0 H 0 Z"
         transform="translate(-676.13199,-860.87155)"
         id="path59" />
    </clipPath>
    <clipPath
       clipPathUnits="userSpaceOnUse"
       id="clipPath61">
      <path
         d="M 0,1920 H 1080 V 0 H 0 Z"
         transform="translate(-696.81459,-877.69382)"
         id="path61" />
    </clipPath>
    <clipPath
       clipPathUnits="userSpaceOnUse"
       id="clipPath63">
      <path
         d="M 0,1920 H 1080 V 0 H 0 Z"
         transform="translate(-725.09004,-869.2504)"
         id="path63" />
    </clipPath>
    <clipPath
       clipPathUnits="userSpaceOnUse"
       id="clipPath65">
      <path
         d="M 0,1920 H 1080 V 0 H 0 Z"
         transform="translate(-764.62269,-875.66455)"
         id="path65" />
    </clipPath>
    <clipPath
       clipPathUnits="userSpaceOnUse"
       id="clipPath67">
      <path
         d="M 0,1920 H 1080 V 0 H 0 Z"
         transform="translate(-831.31952,-890.9809)"
         id="path67" />
    </clipPath>
    <clipPath
       clipPathUnits="userSpaceOnUse"
       id="clipPath69">
      <path
         d="M 0,1920 H 1080 V 0 H 0 Z"
         transform="translate(-853.44212,-852.62455)"
         id="path69" />
    </clipPath>
    <clipPath
       clipPathUnits="userSpaceOnUse"
       id="clipPath71">
      <path
         d="M 0,1920 H 1080 V 0 H 0 Z"
         transform="translate(-879.81902,-848.43602)"
         id="path71" />
    </clipPath>
    <clipPath
       clipPathUnits="userSpaceOnUse"
       id="clipPath73">
      <path
         d="M 0,1920 H 1080 V 0 H 0 Z"
         transform="translate(-900.17455,-868.6606)"
         id="path73" />
    </clipPath>
    <clipPath
       clipPathUnits="userSpaceOnUse"
       id="clipPath75">
      <path
         d="M 0,1920 H 1080 V 0 H 0 Z"
         id="path75" />
    </clipPath>
    <clipPath
       clipPathUnits="userSpaceOnUse"
       id="clipPath77">
      <path
         d="M 0,1920 H 1080 V 0 H 0 Z"
         transform="translate(-330.96683,-961.06465)"
         id="path77" />
    </clipPath>
  </defs>
  <sodipodi:namedview
     id="namedview1"
     pagecolor="#ffffff"
     bordercolor="#000000"
     borderopacity="0.25"
     inkscape:showpageshadow="2"
     inkscape:pageopacity="0.0"
     inkscape:pagecheckerboard="0"
     inkscape:deskcolor="#d1d1d1">
    <inkscape:page
       x="0"
       y="0"
       width="1015.5142"
       height="330.66663"
       id="page2"
       margin="0"
       bleed="0" />
  </sodipodi:namedview>
  <g
     id="g38"
     inkscape:groupmode="layer"
     inkscape:label="2"
     transform="translate(-1669.8345,-1105.3289)">
    <path
       id="path40"
       d="M 0,0 H 17.3 V -14.45 H 0 v -91.795 H -17.301 V -14.45 H -30.327 V 0 h 13.026 v 14.451 3.867 c 0,1.493 0.271,3.629 0.814,6.412 0.541,2.78 1.966,5.527 4.275,8.244 2.305,2.712 5.765,5.052 10.38,7.021 4.611,1.966 10.991,2.951 19.132,2.951 2.169,0 4.137,0.033 5.903,0.102 1.762,0.067 3.593,-0.034 5.495,-0.305 L 24.831,28.088 c -1.628,-0.137 -2.986,-0.203 -4.071,-0.203 -1.087,0 -2.375,-0.071 -3.867,-0.203 -3.8,0 -6.818,-0.443 -9.057,-1.324 C 5.597,25.475 3.898,24.39 2.747,23.102 1.593,21.811 0.846,20.456 0.509,19.031 0.168,17.606 0,16.283 0,15.063 V 13.23 Z"
       style="fill:#ffffff;fill-opacity:1;fill-rule:nonzero;stroke:none"
       transform="matrix(1.3333333,0,0,-1.3333333,2017.2243,1198.9913)"
       clip-path="url(#clipPath41)" />
    <path
       id="path42"
       d="m 0,0 v 1.832 c 0,1.222 -0.172,2.544 -0.509,3.969 -0.341,1.425 -1.119,2.78 -2.341,4.071 -1.221,1.288 -2.951,2.372 -5.19,3.257 -2.238,0.881 -5.189,1.322 -8.854,1.322 -3.8,0 -6.888,-0.441 -9.26,-1.322 C -28.53,12.244 -30.362,11.195 -31.65,9.974 -32.941,8.753 -33.787,7.43 -34.194,6.005 -34.601,4.58 -34.805,3.324 -34.805,2.239 V 0 -0.203 -1.831 -18.929 c 0.271,1.222 0.881,2.204 1.832,2.951 0.948,0.745 2.036,1.324 3.257,1.731 1.221,0.407 2.442,0.678 3.663,0.814 1.221,0.133 2.169,0.204 2.85,0.204 h 11.601 c 3.121,0 5.832,1.119 8.142,3.358 2.306,2.239 3.46,4.917 3.46,8.04 v 1.628 z m -17.301,29.717 c 8.142,0 14.518,-0.987 19.133,-2.951 4.611,-1.969 8.071,-4.31 10.38,-7.023 2.306,-2.716 3.73,-5.464 4.274,-8.243 0.541,-2.782 0.815,-4.92 0.815,-6.411 V 0 -0.203 -4.681 c 0,-2.309 -0.443,-4.884 -1.323,-7.734 -0.884,-2.85 -2.952,-5.902 -6.208,-9.159 -1.496,-1.628 -3.19,-2.85 -5.088,-3.664 -1.903,-0.814 -3.598,-1.425 -5.089,-1.831 -1.765,-0.544 -3.597,-0.815 -5.495,-0.815 h -15.469 c -3.53,0 -6.65,-1.291 -9.363,-3.867 -2.716,-2.579 -4.071,-5.77 -4.071,-9.566 v -9.16 c 0,-3.256 0.611,-5.836 1.832,-7.734 0.541,-0.951 1.152,-1.765 1.832,-2.442 0.677,-0.681 1.695,-1.291 3.053,-1.832 1.084,-0.544 2.474,-1.018 4.172,-1.425 1.695,-0.406 3.899,-0.611 6.615,-0.611 3.528,0 6.31,0.373 8.345,1.12 2.036,0.745 3.461,1.39 4.274,1.933 1.762,1.356 2.984,2.984 3.664,4.886 0.677,1.898 1.018,3.934 1.018,6.105 h 17.301 v -4.884 c 0,-3.663 -0.783,-7.057 -2.341,-10.177 -1.562,-3.123 -3.969,-5.836 -7.226,-8.142 -2.308,-1.628 -5.496,-3.052 -9.566,-4.274 -4.07,-1.221 -9.229,-1.831 -15.469,-1.831 -4.614,0 -8.618,0.375 -12.009,1.119 -3.393,0.744 -6.344,1.695 -8.853,2.85 -2.513,1.151 -4.58,2.473 -6.208,3.968 -1.628,1.492 -2.986,2.984 -4.07,4.478 -2.443,3.527 -3.597,7.598 -3.46,12.213 v 4.68 9.16 V -0.203 0 5.089 c 0,1.628 0.27,3.797 0.813,6.513 0.541,2.712 1.966,5.425 4.275,8.141 2.305,2.713 5.765,5.054 10.38,7.023 4.612,1.964 10.991,2.951 19.132,2.951"
       style="fill:#ffffff;fill-opacity:1;fill-rule:nonzero;stroke:none"
       transform="matrix(1.3333333,0,0,-1.3333333,2138.5303,1236.4419)"
       clip-path="url(#clipPath43)" />
    <path
       id="path44"
       d="m 0,0 v 1.832 c 0,1.222 -0.171,2.544 -0.509,3.969 -0.34,1.425 -1.119,2.78 -2.341,4.071 -1.221,1.288 -2.951,2.372 -5.19,3.257 -2.238,0.881 -5.189,1.322 -8.854,1.322 -3.8,0 -6.888,-0.441 -9.26,-1.322 C -28.53,12.244 -30.362,11.195 -31.65,9.974 -32.941,8.753 -33.787,7.43 -34.194,6.005 -34.601,4.58 -34.805,3.324 -34.805,2.239 V 0 -0.203 -1.831 -18.929 c 0.271,1.222 0.882,2.204 1.832,2.951 0.948,0.745 2.036,1.324 3.257,1.731 1.221,0.407 2.443,0.678 3.664,0.814 1.221,0.133 2.169,0.204 2.849,0.204 h 11.601 c 3.121,0 5.833,1.119 8.142,3.358 2.306,2.239 3.46,4.917 3.46,8.04 v 1.628 z m -17.3,29.717 c 8.141,0 14.517,-0.987 19.132,-2.951 4.611,-1.969 8.071,-4.31 10.38,-7.023 2.306,-2.716 3.731,-5.464 4.274,-8.243 0.541,-2.782 0.815,-4.92 0.815,-6.411 V 0 -0.203 -4.681 c 0,-2.309 -0.443,-4.884 -1.323,-7.734 -0.884,-2.85 -2.952,-5.902 -6.208,-9.159 -1.495,-1.628 -3.19,-2.85 -5.088,-3.664 -1.902,-0.814 -3.598,-1.425 -5.089,-1.831 -1.765,-0.544 -3.597,-0.815 -5.495,-0.815 h -15.469 c -3.53,0 -6.65,-1.291 -9.363,-3.867 -2.716,-2.579 -4.071,-5.77 -4.071,-9.566 v -9.16 c 0,-3.256 0.611,-5.836 1.832,-7.734 0.541,-0.951 1.152,-1.765 1.832,-2.442 0.678,-0.681 1.695,-1.291 3.053,-1.832 1.085,-0.544 2.474,-1.018 4.172,-1.425 1.696,-0.406 3.9,-0.611 6.616,-0.611 3.527,0 6.309,0.373 8.344,1.12 2.036,0.745 3.461,1.39 4.275,1.933 1.762,1.356 2.983,2.984 3.663,4.886 0.678,1.898 1.018,3.934 1.018,6.105 h 17.301 v -4.884 c 0,-3.663 -0.783,-7.057 -2.341,-10.177 -1.562,-3.123 -3.969,-5.836 -7.226,-8.142 -2.308,-1.628 -5.495,-3.052 -9.566,-4.274 -4.07,-1.221 -9.229,-1.831 -15.468,-1.831 -4.615,0 -8.619,0.375 -12.009,1.119 -3.393,0.744 -6.345,1.695 -8.854,2.85 -2.512,1.151 -4.579,2.473 -6.208,3.968 -1.628,1.492 -2.986,2.984 -4.07,4.478 -2.443,3.527 -3.597,7.598 -3.46,12.213 v 4.68 9.16 V -0.203 0 5.089 c 0,1.628 0.27,3.797 0.814,6.513 0.54,2.712 1.965,5.425 4.274,8.141 2.306,2.713 5.766,5.054 10.38,7.023 4.612,1.964 10.991,2.951 19.133,2.951"
       style="fill:#ffffff;fill-opacity:1;fill-rule:nonzero;stroke:none"
       transform="matrix(1.3333333,0,0,-1.3333333,2252.7783,1236.4419)"
       clip-path="url(#clipPath45)" />
    <path
       id="path46"
       d="m 633.457,1062.075 h 17.097 V 914.512 h -17.097 z"
       style="fill:#ffffff;fill-opacity:1;fill-rule:nonzero;stroke:none"
       transform="matrix(1.3333333,0,0,-1.3333333,1460,2560)"
       clip-path="url(#clipPath47)" />
    <path
       id="path48"
       d="M 0,0 H 17.301 V -14.45 H 0 v -91.795 H -17.3 V -14.45 H -30.327 V 0 H -17.3 v 14.451 3.867 c 0,1.493 0.27,3.629 0.814,6.412 0.54,2.78 1.965,5.527 4.274,8.244 2.306,2.712 5.766,5.052 10.38,7.021 4.612,1.966 10.991,2.951 19.133,2.951 2.169,0 4.137,0.033 5.902,0.102 1.762,0.067 3.594,-0.034 5.496,-0.305 L 24.832,28.088 c -1.629,-0.137 -2.987,-0.203 -4.071,-0.203 -1.088,0 -2.376,-0.071 -3.867,-0.203 -3.801,0 -6.819,-0.443 -9.058,-1.324 C 5.597,25.475 3.899,24.39 2.748,23.102 1.593,21.811 0.846,20.456 0.509,19.031 0.168,17.606 0,16.283 0,15.063 V 13.23 Z"
       style="fill:#ffffff;fill-opacity:1;fill-rule:nonzero;stroke:none"
       transform="matrix(1.3333333,0,0,-1.3333333,2394.4345,1198.9913)"
       clip-path="url(#clipPath49)" />
    <path
       id="path50"
       d="m 0,0 c -0.273,-1.357 -0.951,-2.375 -2.035,-3.053 -1.088,-0.68 -2.106,-1.154 -3.053,-1.425 -2.036,-0.68 -4.243,-1.459 -6.615,-2.34 -2.376,-0.884 -4.58,-1.663 -6.615,-2.341 -2.443,-0.814 -4.751,-1.628 -6.92,-2.443 -1.629,-0.679 -3.19,-1.627 -4.681,-2.848 -1.222,-1.088 -2.341,-2.478 -3.359,-4.173 -1.017,-1.698 -1.527,-3.835 -1.527,-6.411 0,-5.158 1.222,-8.991 3.664,-11.5 2.443,-2.513 6.987,-3.766 13.637,-3.766 6.783,0 11.398,1.323 13.84,3.969 2.443,2.646 3.664,6.412 3.664,11.297 z m -17.504,53.938 c 11.939,0 20.691,-2.341 26.256,-7.023 5.562,-4.681 8.345,-10.552 8.345,-17.605 v -9.77 -44.574 -5.903 c 0,-2.443 -0.442,-5.124 -1.323,-8.04 -0.884,-2.919 -2.614,-5.597 -5.19,-8.04 C 8.005,-49.459 4.478,-51.494 0,-53.122 c -4.478,-1.629 -10.313,-2.442 -17.504,-2.442 -7.194,0 -13.026,0.813 -17.504,2.442 -4.478,1.628 -8.008,3.663 -10.584,6.105 -2.579,2.443 -4.309,5.121 -5.19,8.04 -0.884,2.916 -1.323,5.597 -1.323,8.04 v 9.566 c 0,5.155 1.323,9.837 3.969,14.044 2.646,4.204 6.411,7.19 11.296,8.956 2.443,0.813 5.222,1.762 8.345,2.85 3.12,1.083 6.138,2.136 9.058,3.154 2.916,1.017 5.46,1.933 7.632,2.748 2.169,0.814 3.527,1.288 4.071,1.425 0.541,0.27 1.253,0.642 2.137,1.119 0.881,0.473 1.73,1.186 2.544,2.138 0.814,0.947 1.527,2.035 2.137,3.255 C -0.305,19.54 0,20.965 0,22.593 v 3.867 c 0,1.354 -0.273,2.748 -0.814,4.173 -0.544,1.425 -1.495,2.747 -2.85,3.969 -1.357,1.22 -3.154,2.204 -5.393,2.951 -2.239,0.744 -5.057,1.119 -8.447,1.119 -6.787,0 -11.366,-1.393 -13.739,-4.172 -2.375,-2.783 -3.562,-6.142 -3.562,-10.075 h -17.3 v 4.885 c 0,3.389 0.643,6.58 1.934,9.566 1.288,2.982 3.358,5.597 6.208,7.836 2.849,2.238 6.442,4.001 10.787,5.292 4.341,1.288 9.566,1.934 15.672,1.934"
       style="fill:#ffffff;fill-opacity:1;fill-rule:nonzero;stroke:none"
       transform="matrix(1.3333333,0,0,-1.3333333,2515.7405,1268.7361)"
       clip-path="url(#clipPath51)" />
    <path
       id="path52"
       d="m 834.138,1062.075 h 17.097 V 914.512 h -17.097 z"
       style="fill:#ffffff;fill-opacity:1;fill-rule:nonzero;stroke:none"
       transform="matrix(1.3333333,0,0,-1.3333333,1460,2560)"
       clip-path="url(#clipPath53)" />
    <path
       id="path54"
       d="m 0,0 v -15.266 c -8.142,0 -14.521,0.983 -19.132,2.952 -4.615,1.965 -8.11,4.305 -10.483,7.022 -2.375,2.712 -3.835,5.46 -4.376,8.243 -0.544,2.779 -0.814,4.916 -0.814,6.411 v 3.663 65.132 h -13.026 v 14.451 h 13.026 v 27.071 h 17.301 V 92.608 H 0 V 78.157 H -17.504 V 14.654 12.822 c 0,-1.221 0.168,-2.544 0.508,-3.968 0.338,-1.425 1.12,-2.819 2.341,-4.173 1.221,-1.358 2.951,-2.478 5.19,-3.359 C -7.226,0.438 -4.274,0 -0.611,0 Z"
       style="fill:#ffffff;fill-opacity:1;fill-rule:nonzero;stroke:none"
       transform="matrix(1.3333333,0,0,-1.3333333,2685.3487,1320.2973)"
       clip-path="url(#clipPath55)" />
    <path
       id="path56"
       d="M 0,0 V 0.72 C 0,1.113 -0.065,1.538 -0.196,1.996 -0.327,2.455 -0.6,2.88 -1.014,3.272 -1.43,3.666 -2.007,4.003 -2.749,4.287 -3.491,4.57 -4.495,4.713 -5.76,4.713 -6.938,4.713 -7.887,4.57 -8.607,4.287 -9.327,4.003 -9.883,3.644 -10.276,3.207 -10.668,2.771 -10.92,2.324 -11.029,1.865 -11.138,1.407 -11.192,0.982 -11.192,0.589 V 0 -29.323 -29.912 c 0,-0.393 0.054,-0.818 0.163,-1.276 0.109,-0.458 0.361,-0.895 0.753,-1.309 0.393,-0.415 0.949,-0.765 1.669,-1.048 0.72,-0.284 1.669,-0.425 2.847,-0.425 1.265,0 2.269,0.141 3.011,0.425 0.742,0.283 1.319,0.622 1.735,1.015 0.414,0.392 0.687,0.818 0.818,1.276 0.131,0.458 0.196,0.861 0.196,1.211 v 0.72 h 5.564 v -1.636 c 0,-0.523 -0.088,-1.223 -0.262,-2.095 -0.175,-0.873 -0.633,-1.746 -1.375,-2.618 -0.742,-0.873 -1.855,-1.626 -3.338,-2.258 -1.484,-0.633 -3.534,-0.949 -6.152,-0.949 -2.619,0 -4.67,0.316 -6.153,0.949 -1.484,0.632 -2.608,1.385 -3.371,2.258 -0.764,0.872 -1.233,1.756 -1.407,2.651 -0.175,0.894 -0.262,1.582 -0.262,2.062 V -29.323 0 1.702 c 0,0.48 0.087,1.167 0.262,2.062 0.174,0.893 0.643,1.777 1.407,2.651 0.763,0.872 1.887,1.625 3.371,2.258 1.483,0.632 3.534,0.949 6.153,0.949 2.618,0 4.668,-0.317 6.152,-0.949 C 2.072,8.04 3.185,7.287 3.927,6.415 4.669,5.541 5.127,4.657 5.302,3.764 5.476,2.869 5.564,2.182 5.564,1.702 V 0 Z"
       style="fill:#ffffff;fill-opacity:1;fill-rule:nonzero;stroke:none"
       transform="matrix(1.3333333,0,0,-1.3333333,2326.9501,1384.0697)"
       clip-path="url(#clipPath57)" />
    <path
       id="path58"
       d="M 0,0 C -0.088,-0.437 -0.306,-0.764 -0.654,-0.981 -1.004,-1.2 -1.332,-1.353 -1.636,-1.439 -2.291,-1.658 -3,-1.909 -3.763,-2.192 -4.527,-2.477 -5.236,-2.728 -5.891,-2.945 -6.676,-3.207 -7.418,-3.469 -8.116,-3.73 -8.64,-3.949 -9.142,-4.254 -9.622,-4.646 c -0.392,-0.35 -0.752,-0.797 -1.08,-1.342 -0.327,-0.547 -0.49,-1.234 -0.49,-2.063 0,-1.658 0.392,-2.89 1.178,-3.697 0.785,-0.809 2.247,-1.211 4.385,-1.211 2.182,0 3.666,0.425 4.451,1.276 C -0.393,-10.832 0,-9.621 0,-8.051 Z m -5.629,17.346 c 3.839,0 6.654,-0.753 8.443,-2.258 1.79,-1.506 2.684,-3.394 2.684,-5.662 V 6.284 -8.051 -9.948 c 0,-0.786 -0.142,-1.648 -0.425,-2.586 -0.284,-0.939 -0.841,-1.8 -1.669,-2.585 C 2.574,-15.904 1.44,-16.56 0,-17.083 c -1.44,-0.523 -3.316,-0.785 -5.629,-0.785 -2.313,0 -4.189,0.262 -5.629,0.785 -1.44,0.523 -2.575,1.179 -3.403,1.964 -0.83,0.785 -1.386,1.646 -1.67,2.585 -0.284,0.938 -0.425,1.8 -0.425,2.586 v 3.076 c 0,1.657 0.425,3.163 1.277,4.517 0.851,1.351 2.061,2.311 3.632,2.879 0.785,0.262 1.68,0.567 2.684,0.916 1.003,0.349 1.974,0.688 2.913,1.015 0.937,0.327 1.755,0.622 2.454,0.884 0.697,0.262 1.134,0.414 1.309,0.458 0.174,0.087 0.403,0.206 0.687,0.359 0.283,0.154 0.556,0.382 0.819,0.688 0.261,0.304 0.49,0.654 0.687,1.048 C -0.098,6.284 0,6.742 0,7.266 V 8.51 c 0,0.435 -0.088,0.883 -0.262,1.342 -0.175,0.458 -0.48,0.882 -0.916,1.276 -0.437,0.393 -1.014,0.708 -1.735,0.948 -0.719,0.239 -1.626,0.361 -2.716,0.361 -2.182,0 -3.655,-0.449 -4.418,-1.342 -0.764,-0.895 -1.145,-1.975 -1.145,-3.241 h -5.564 v 1.572 c 0,1.09 0.207,2.116 0.622,3.076 0.414,0.959 1.08,1.8 1.996,2.519 0.917,0.721 2.072,1.288 3.47,1.703 1.396,0.414 3.076,0.622 5.039,0.622"
       style="fill:#ffffff;fill-opacity:1;fill-rule:nonzero;stroke:none"
       transform="matrix(1.3333333,0,0,-1.3333333,2361.5093,1412.1713)"
       clip-path="url(#clipPath59)" />
    <path
       id="path60"
       d="M 0,0 H 5.563 V -4.647 H 0 v -29.52 h -5.563 v 29.52 H -9.752 V 0 h 4.189 v 4.646 1.245 c 0,0.479 0.086,1.167 0.261,2.061 0.174,0.894 0.633,1.777 1.375,2.652 0.741,0.872 1.854,1.625 3.338,2.257 1.483,0.632 3.534,0.95 6.152,0.95 0.698,0 1.331,0.009 1.899,0.032 0.566,0.021 1.156,-0.011 1.767,-0.098 L 7.985,9.032 C 7.462,8.988 7.025,8.967 6.676,8.967 6.327,8.967 5.913,8.944 5.433,8.901 4.21,8.901 3.24,8.759 2.52,8.476 1.8,8.191 1.254,7.843 0.884,7.429 0.513,7.014 0.272,6.578 0.164,6.119 0.054,5.661 0,5.236 0,4.843 V 4.254 Z"
       style="fill:#ffffff;fill-opacity:1;fill-rule:nonzero;stroke:none"
       transform="matrix(1.3333333,0,0,-1.3333333,2389.0861,1389.7416)"
       clip-path="url(#clipPath61)" />
    <path
       id="path62"
       d="m 0,0 c 0,0.393 -0.055,0.817 -0.164,1.275 -0.109,0.459 -0.359,0.895 -0.752,1.31 -0.393,0.414 -0.949,0.763 -1.669,1.047 -0.72,0.283 -1.669,0.426 -2.848,0.426 -1.222,0 -2.214,-0.143 -2.978,-0.426 C -9.174,3.348 -9.764,3.011 -10.178,2.617 -10.593,2.225 -10.865,1.8 -10.996,1.342 -11.127,0.883 -11.192,0.479 -11.192,0.131 V -0.59 -1.113 -6.677 c 0.043,0.393 0.229,0.709 0.556,0.949 0.327,0.24 0.687,0.426 1.08,0.557 0.393,0.131 0.785,0.218 1.178,0.262 0.393,0.043 0.676,0.065 0.851,0.065 h 3.797 c 1.002,0 1.875,0.36 2.618,1.08 C -0.371,-3.044 0,-2.16 0,-1.113 v 0.523 z m 0.753,19.668 c -1.026,-1.025 -2.095,-2.106 -3.207,-3.239 -1.113,-1.136 -2.139,-2.16 -3.077,-3.077 -0.938,-0.916 -1.516,-1.462 -1.734,-1.636 -0.219,-0.175 -0.524,-0.327 -0.917,-0.458 -0.392,-0.131 -0.829,-0.24 -1.309,-0.327 -0.523,-0.131 -1.091,-0.22 -1.701,-0.263 1.134,1.876 2.16,3.578 3.076,5.105 0.393,0.656 0.785,1.31 1.178,1.964 0.393,0.655 0.753,1.254 1.08,1.8 0.327,0.545 0.622,1.015 0.884,1.407 0.262,0.393 0.435,0.677 0.523,0.852 H 2.88 C 2.487,21.402 1.778,20.693 0.753,19.668 M -5.629,8.967 c 2.618,0 4.669,-0.318 6.153,-0.949 C 2.007,7.385 3.12,6.632 3.862,5.76 4.604,4.886 5.062,4.002 5.236,3.108 5.41,2.214 5.498,1.526 5.498,1.047 V -0.59 -2.095 C 5.498,-2.838 5.367,-3.666 5.105,-4.582 4.844,-5.499 4.189,-6.48 3.142,-7.527 2.618,-8.051 2.062,-8.444 1.473,-8.706 0.884,-8.968 0.349,-9.164 -0.131,-9.295 -0.698,-9.47 -1.288,-9.535 -1.898,-9.491 h -4.975 c -1.178,0 -2.192,-0.426 -3.043,-1.277 -0.851,-0.85 -1.276,-1.865 -1.276,-3.044 v -2.945 c 0,-1.091 0.196,-1.941 0.589,-2.553 0.174,-0.305 0.37,-0.567 0.589,-0.785 0.218,-0.218 0.523,-0.415 0.916,-0.589 0.349,-0.174 0.807,-0.327 1.375,-0.458 0.566,-0.13 1.265,-0.196 2.094,-0.196 1.178,0 2.095,0.119 2.749,0.359 0.655,0.24 1.113,0.448 1.375,0.623 v 0.065 c 0.567,0.436 0.959,0.949 1.178,1.538 0.218,0.589 0.327,1.232 0.327,1.931 h 5.498 v -1.571 c 0,-1.178 -0.24,-2.269 -0.72,-3.272 -0.48,-1.005 -1.243,-1.877 -2.291,-2.618 -0.742,-0.525 -1.767,-0.983 -3.076,-1.375 -1.309,-0.393 -2.989,-0.589 -5.04,-0.589 -1.484,0 -2.771,0.109 -3.862,0.327 -1.091,0.218 -2.029,0.513 -2.814,0.884 -0.785,0.37 -1.44,0.796 -1.964,1.276 -0.523,0.48 -0.96,0.982 -1.309,1.505 -0.785,1.179 -1.178,2.509 -1.178,3.993 v 1.505 2.945 13.222 1.637 c 0,0.523 0.087,1.221 0.262,2.095 0.174,0.872 0.632,1.744 1.374,2.618 0.742,0.872 1.855,1.625 3.339,2.258 1.483,0.631 3.534,0.949 6.152,0.949"
       style="fill:#ffffff;fill-opacity:1;fill-rule:nonzero;stroke:none"
       transform="matrix(1.3333333,0,0,-1.3333333,2426.7867,1400.9995)"
       clip-path="url(#clipPath63)" />
    <path
       id="path64"
       d="m 0,0 c 0.087,-1.179 0.381,-2.105 0.884,-2.782 0.501,-0.677 1.101,-1.364 1.8,-2.062 l 0.327,-0.327 5.891,3.273 c 1.003,0.697 1.636,1.494 1.898,2.389 0.262,0.894 0.392,1.996 0.392,3.305 v 3.535 c -0.044,0.087 -0.065,0.196 -0.065,0.327 0,0.131 -0.023,0.262 -0.065,0.393 -0.219,0.697 -0.71,1.351 -1.473,1.964 -0.764,0.61 -2.106,0.916 -4.026,0.916 -1.92,0 -3.25,-0.306 -3.992,-0.916 C 0.829,9.402 0.349,8.748 0.131,8.051 0.087,7.92 0.054,7.733 0.033,7.494 0.01,7.254 0,7.091 0,7.003 Z m 5.826,-28.146 c 2.399,0 4.243,0.382 5.53,1.146 1.287,0.764 2.236,1.822 2.848,3.175 -2.139,2.138 -4.245,4.243 -6.317,6.316 -2.073,2.072 -4.025,4.047 -5.858,5.924 -0.481,-0.262 -0.939,-0.503 -1.374,-0.721 -0.35,-0.218 -0.699,-0.436 -1.048,-0.654 -0.349,-0.219 -0.633,-0.393 -0.851,-0.523 -1.135,-0.873 -1.909,-1.899 -2.323,-3.077 -0.415,-1.178 -0.622,-2.444 -0.622,-3.796 v -0.262 c 0,-0.131 0.022,-0.327 0.065,-0.589 0.043,-0.393 0.197,-1.037 0.458,-1.931 0.263,-0.895 0.764,-1.713 1.506,-2.455 1.702,-1.701 4.363,-2.553 7.986,-2.553 m 16.756,-3.992 c -0.699,0.698 -1.419,1.397 -2.161,2.095 -0.742,0.697 -1.462,1.417 -2.159,2.16 -1.048,-1.44 -2.564,-2.564 -4.55,-3.371 -1.985,-0.809 -4.679,-1.211 -8.083,-1.211 -6.24,0 -10.561,1.396 -12.96,4.189 -0.873,1.004 -1.44,2.04 -1.701,3.109 -0.262,1.068 -0.393,2.018 -0.393,2.848 v 2.945 c 0,2.137 0.458,4.145 1.374,6.021 0.917,1.876 2.4,3.381 4.451,4.517 l 1.898,1.047 c -0.261,0.218 -0.513,0.458 -0.753,0.72 -0.24,0.261 -0.469,0.501 -0.687,0.72 l -0.327,0.262 c -0.829,0.916 -1.385,1.996 -1.669,3.239 -0.284,1.244 -0.425,2.717 -0.425,4.418 v 6.415 c 0,0.218 0.021,0.513 0.065,0.884 0.043,0.37 0.108,0.752 0.196,1.146 0.174,0.61 0.448,1.232 0.819,1.865 0.37,0.632 0.916,1.232 1.636,1.8 0.72,0.566 1.636,1.047 2.749,1.439 1.113,0.394 2.497,0.633 4.156,0.721 0.218,0.043 0.414,0.065 0.589,0.065 h 0.916 c 0.218,0 0.524,-0.011 0.917,-0.033 0.393,-0.022 0.61,-0.032 0.654,-0.032 1.658,-0.088 3.044,-0.327 4.157,-0.721 1.112,-0.392 2.018,-0.873 2.716,-1.439 0.698,-0.568 1.232,-1.168 1.604,-1.8 0.37,-0.633 0.643,-1.234 0.818,-1.8 C 16.56,9.643 16.635,9.239 16.658,8.869 16.68,8.498 16.691,8.203 16.691,7.985 V 2.814 c 0,-2.094 -0.35,-3.819 -1.047,-5.17 -0.699,-1.353 -1.877,-2.51 -3.535,-3.469 l -5.367,-3.076 9.163,-9.622 v 4.451 l 4.713,3.207 v -6.873 c 0,-0.873 -0.023,-1.701 -0.066,-2.488 -0.044,-0.785 -0.131,-1.548 -0.261,-2.29 1.309,-1.309 2.52,-2.543 3.632,-3.698 1.113,-1.157 2.105,-2.172 2.978,-3.044 1.004,-1.047 1.899,-2.008 2.684,-2.88 z"
       style="fill:#ffffff;fill-opacity:1;fill-rule:nonzero;stroke:none"
       transform="matrix(1.3333333,0,0,-1.3333333,2479.4969,1392.4473)"
       clip-path="url(#clipPath65)" />
    <path
       id="path66"
       d="m 0,0 v -47.454 h -5.498 v 21.142 H -18 v -21.142 h -5.563 V 0 H -18 V -21.142 H -5.498 V 0 Z"
       style="fill:#ffffff;fill-opacity:1;fill-rule:nonzero;stroke:none"
       transform="matrix(1.3333333,0,0,-1.3333333,2568.426,1372.0255)"
       clip-path="url(#clipPath67)" />
    <path
       id="path68"
       d="m 0,0 v 15.971 0.72 c 0,0.393 -0.065,0.818 -0.196,1.277 -0.131,0.458 -0.404,0.883 -0.818,1.275 -0.416,0.394 -0.993,0.731 -1.735,1.015 -0.742,0.283 -1.746,0.426 -3.011,0.426 -1.178,0 -2.127,-0.143 -2.847,-0.426 -0.72,-0.284 -1.276,-0.633 -1.669,-1.047 -0.393,-0.415 -0.644,-0.862 -0.753,-1.342 -0.109,-0.48 -0.163,-0.894 -0.163,-1.243 V 15.971 0 -0.654 c 0,-0.35 0.054,-0.764 0.163,-1.243 0.109,-0.482 0.36,-0.928 0.753,-1.342 0.393,-0.416 0.949,-0.765 1.669,-1.048 0.72,-0.284 1.669,-0.425 2.847,-0.425 1.265,0 2.269,0.141 3.011,0.425 0.742,0.283 1.319,0.622 1.735,1.015 0.414,0.392 0.687,0.818 0.818,1.276 C -0.065,-1.538 0,-1.112 0,-0.72 Z M 5.563,-0.654 V -1.701 C 5.563,-2.225 5.476,-2.924 5.302,-3.796 5.127,-4.669 4.669,-5.542 3.927,-6.414 3.185,-7.287 2.072,-8.04 0.589,-8.672 c -1.484,-0.633 -3.534,-0.949 -6.152,-0.949 -2.619,0 -4.67,0.316 -6.153,0.949 -1.484,0.632 -2.597,1.385 -3.338,2.258 -0.742,0.872 -1.201,1.756 -1.375,2.65 -0.175,0.895 -0.261,1.582 -0.261,2.063 v 0.72 18.654 c 0,0.479 0.086,1.167 0.261,2.061 0.174,0.894 0.633,1.778 1.375,2.652 0.741,0.872 1.854,1.625 3.338,2.258 1.483,0.631 3.534,0.949 6.153,0.949 2.618,0 4.668,-0.318 6.152,-0.949 1.483,-0.633 2.596,-1.386 3.338,-2.258 0.742,-0.874 1.2,-1.746 1.375,-2.618 0.174,-0.874 0.261,-1.572 0.261,-2.095 z"
       style="fill:#ffffff;fill-opacity:1;fill-rule:nonzero;stroke:none"
       transform="matrix(1.3333333,0,0,-1.3333333,2597.9228,1423.1673)"
       clip-path="url(#clipPath69)" />
    <path
       id="path70"
       d="m 0,0 v -4.909 c -2.618,0 -4.669,0.316 -6.152,0.949 -1.484,0.632 -2.608,1.385 -3.371,2.258 -0.764,0.872 -1.234,1.756 -1.408,2.651 -0.174,0.894 -0.261,1.581 -0.261,2.062 v 1.177 20.946 h -4.189 v 4.647 h 4.189 v 8.705 h 5.563 V 29.781 H 0 V 25.134 H -5.629 V 4.713 4.123 c 0,-0.393 0.054,-0.817 0.164,-1.276 0.108,-0.458 0.36,-0.906 0.753,-1.342 C -4.32,1.068 -3.763,0.709 -3.043,0.425 -2.323,0.141 -1.375,0 -0.196,0 Z"
       style="fill:#ffffff;fill-opacity:1;fill-rule:nonzero;stroke:none"
       transform="matrix(1.3333333,0,0,-1.3333333,2633.092,1428.752)"
       clip-path="url(#clipPath71)" />
    <path
       id="path72"
       d="m 0,0 v 0.59 c 0,0.392 -0.055,0.817 -0.164,1.275 -0.109,0.459 -0.359,0.895 -0.752,1.31 -0.393,0.414 -0.949,0.763 -1.669,1.047 -0.72,0.283 -1.669,0.425 -2.848,0.425 -1.222,0 -2.214,-0.142 -2.978,-0.425 C -9.174,3.938 -9.764,3.601 -10.178,3.207 -10.593,2.814 -10.865,2.39 -10.996,1.932 -11.127,1.473 -11.192,1.069 -11.192,0.721 V 0 -0.065 -0.589 -6.087 c 0.087,0.393 0.283,0.709 0.589,0.949 0.305,0.24 0.654,0.426 1.047,0.557 0.393,0.131 0.785,0.218 1.178,0.262 0.393,0.043 0.698,0.065 0.917,0.065 h 3.731 c 1.002,0 1.875,0.359 2.618,1.08 C -0.371,-2.454 0,-1.593 0,-0.589 v 0.524 z m -5.563,9.557 c 2.618,0 4.668,-0.318 6.152,-0.95 C 2.072,7.975 3.185,7.222 3.927,6.35 4.669,5.476 5.127,4.592 5.302,3.698 5.476,2.804 5.564,2.116 5.564,1.637 V 0 -0.065 -1.505 C 5.564,-2.248 5.421,-3.076 5.138,-3.992 4.854,-4.909 4.189,-5.891 3.142,-6.937 2.661,-7.461 2.116,-7.854 1.506,-8.116 0.894,-8.378 0.349,-8.574 -0.131,-8.705 -0.698,-8.88 -1.288,-8.967 -1.898,-8.967 h -4.975 c -1.135,0 -2.138,-0.415 -3.01,-1.243 -0.874,-0.83 -1.309,-1.855 -1.309,-3.077 v -2.945 c 0,-1.047 0.196,-1.876 0.589,-2.488 0.174,-0.305 0.37,-0.567 0.589,-0.785 0.218,-0.219 0.545,-0.415 0.982,-0.589 0.348,-0.175 0.795,-0.327 1.342,-0.458 0.544,-0.131 1.253,-0.196 2.127,-0.196 1.134,0 2.029,0.119 2.683,0.359 0.655,0.24 1.113,0.448 1.375,0.622 0.567,0.436 0.959,0.959 1.178,1.572 0.218,0.61 0.327,1.264 0.327,1.963 h 5.564 v -1.571 c 0,-1.178 -0.252,-2.269 -0.753,-3.272 -0.502,-1.005 -1.276,-1.877 -2.324,-2.618 -0.742,-0.525 -1.767,-0.983 -3.076,-1.375 -1.309,-0.393 -2.968,-0.589 -4.974,-0.589 -1.484,0 -2.772,0.12 -3.862,0.359 -1.091,0.239 -2.04,0.546 -2.847,0.917 -0.808,0.37 -1.473,0.796 -1.997,1.277 -0.523,0.479 -0.96,0.958 -1.309,1.439 -0.785,1.135 -1.156,2.443 -1.112,3.928 v 1.505 2.945 V -0.065 0 1.637 c 0,0.523 0.086,1.22 0.261,2.094 0.174,0.873 0.633,1.745 1.375,2.619 0.741,0.872 1.854,1.625 3.338,2.257 1.483,0.632 3.534,0.95 6.153,0.95"
       style="fill:#ffffff;fill-opacity:1;fill-rule:nonzero;stroke:none"
       transform="matrix(1.3333333,0,0,-1.3333333,2660.2327,1401.7859)"
       clip-path="url(#clipPath73)" />
    <path
       id="path74"
       d="m 911.694,890.981 h 5.498 v -47.454 h -5.498 z"
       style="fill:#ffffff;fill-opacity:1;fill-rule:nonzero;stroke:none"
       transform="matrix(1.3333333,0,0,-1.3333333,1460,2560)"
       clip-path="url(#clipPath75)" />
    <path
       id="path76"
       d="m 0,0 c -50.885,4.944 -86.245,-15.926 -104.637,-60.217 -4.019,1.227 -7.908,2.752 -11.641,4.55 -3.357,1.587 -6.515,3.422 -9.55,5.41 -13.774,9.062 -24.675,22.134 -31.044,37.552 10.676,-4.713 20.467,-11.273 29.217,-19.362 2.421,-2.257 4.77,-4.637 7.047,-7.137 -1.871,-3.553 -3.611,-7.238 -5.22,-11.053 3.048,-2.005 6.237,-3.815 9.55,-5.41 19.33,49.801 66.781,76.131 118.139,67.498 C 1.523,7.798 0.896,3.847 0,0 m -3.307,-10.779 c -1.588,-4.138 -3.5,-8.117 -5.704,-11.903 -32.737,2.119 -57.283,-10.669 -72.124,-41.122 -4.642,0.036 -9.191,0.455 -13.62,1.227 20.937,44.098 53.272,56.156 91.448,51.798 1.298,3.419 2.383,6.894 3.225,10.433 -0.848,-3.573 -1.929,-7.056 -3.225,-10.433 m -64.899,-52.123 -0.181,-0.025 -0.019,-0.003 -0.162,-0.021 -0.038,-0.005 -0.143,-0.019 -0.058,-0.008 -0.123,-0.015 -0.077,-0.011 -0.104,-0.013 -0.097,-0.012 -0.084,-0.011 -0.117,-0.015 -0.2,-0.025 h -0.001 l -0.044,-0.005 -0.156,-0.019 -0.025,-0.003 -0.176,-0.022 -0.006,-10e-4 -0.181,-0.021 -0.014,-0.002 -0.167,-0.02 -0.034,-0.003 -0.148,-0.018 -0.053,-0.005 -0.128,-0.015 -0.072,-0.009 -0.11,-0.012 -0.091,-0.01 -0.09,-0.01 h -0.005 l -0.176,-0.02 -0.131,-0.014 -0.051,-0.005 -0.151,-0.016 -0.031,-0.003 -0.169,-0.018 -0.012,-0.002 -0.182,-0.018 -0.008,-10e-4 -0.174,-0.017 -0.027,-0.003 -0.154,-0.015 -0.047,-0.005 -0.135,-0.013 -0.067,-0.006 -0.115,-0.011 -0.086,-0.008 -0.096,-0.009 -0.106,-0.009 -0.076,-0.007 -0.125,-0.011 -0.041,-0.004 c 1.701,0.147 3.394,0.324 5.064,0.573 12.223,20.754 30.381,29.005 52.054,29.853 -12.717,-15.751 -31.102,-26.735 -52.054,-29.853 m -94.757,76.945 c -0.025,0.444 -0.047,0.888 -0.065,1.334 0.023,-0.448 0.049,-0.893 0.078,-1.333 0.931,0.039 1.863,0.077 2.795,0.116 0.127,-0.039 0.254,-0.078 0.381,-0.118 0.02,-0.006 0.04,-0.012 0.06,-0.018 19.166,-5.977 37.096,-18.931 52.224,-33.107 0.655,0.698 1.175,1.532 1.829,2.23 1.617,1.923 3.414,3.678 5.144,5.488 l -0.152,0.136 -0.002,0.002 -0.152,0.135 -0.003,0.003 -0.15,0.133 -0.005,0.005 -0.149,0.132 -0.006,0.006 -0.148,0.131 -0.007,0.007 -0.146,0.13 -0.009,0.008 -0.145,0.13 -0.01,0.008 -0.145,0.129 -0.01,0.009 -0.144,0.129 -0.011,0.01 -0.143,0.128 -0.011,0.01 -0.144,0.127 -0.011,0.011 -0.144,0.127 -0.011,0.011 -0.143,0.128 -0.012,0.01 -0.143,0.128 -0.012,0.01 -0.143,0.128 -0.012,0.01 -0.144,0.128 -0.011,0.01 -0.144,0.128 -0.011,0.011 -0.144,0.128 -0.011,0.01 -0.144,0.128 -0.011,0.01 -0.145,0.129 -0.01,0.009 -0.145,0.13 -0.01,0.008 -0.146,0.13 -0.009,0.008 -0.146,0.131 -0.009,0.007 -0.147,0.132 -0.008,0.006 -0.148,0.133 -0.006,0.006 -0.149,0.133 -0.006,0.005 -0.15,0.134 -0.005,0.004 -0.151,0.135 -0.004,0.003 -0.152,0.136 -0.003,0.002 -0.153,0.137 -0.002,10e-4 -0.154,0.137 -0.001,0.002 -0.155,0.138 -0.155,0.138 v 0.001 l -0.155,0.137 -10e-4,0.002 -0.153,0.136 -0.004,0.003 -0.151,0.135 -0.004,0.003 -0.151,0.135 -0.005,0.004 -0.15,0.135 -0.006,0.005 -0.149,0.133 -0.007,0.005 -0.148,0.133 -0.007,0.006 -0.148,0.132 -0.008,0.007 -0.147,0.131 -0.009,0.008 -0.146,0.13 -0.009,0.008 -0.145,0.13 -0.011,0.009 -0.145,0.129 -0.01,0.01 -0.145,0.129 -0.01,0.009 -0.144,0.129 -0.012,0.01 -0.143,0.128 -0.012,0.01 -0.143,0.128 -0.012,0.01 -0.143,0.128 -0.012,0.01 -0.143,0.128 -0.012,0.011 -0.143,0.127 -0.012,0.011 -0.143,0.127 -0.012,0.011 -0.143,0.128 -0.011,0.01 -0.144,0.128 -0.011,0.009 -0.144,0.129 -0.01,0.009 -0.145,0.129 -0.009,0.008 -0.145,0.13 -0.009,0.008 -0.146,0.13 -0.008,0.007 -0.147,0.131 -0.006,0.006 -0.149,0.132 -0.005,0.005 -0.15,0.133 -0.004,0.004 -0.151,0.135 -0.002,10e-4 -0.153,0.137 c 6.411,6.068 12.961,11.581 19.713,16.284 8.365,0.095 16.73,0.189 25.094,0.283 -12.7,-6.287 -24.556,-14.296 -34.893,-25.407 -1.714,-1.83 -3.429,-3.658 -5.144,-5.488 -3.33,-3.962 -6.421,-8.164 -9.272,-12.605 -2.145,2.156 -4.31,4.19 -6.49,6.113 -12.848,11.393 -26.125,18.767 -39.646,23.881 -0.99,4.38 -1.631,8.893 -1.894,13.507 m 54.694,-0.128 -10.025,-10.35 -15.151,10.299 z m 18.548,28.542 c 0.789,4.491 4.709,7.903 9.426,7.903 4.717,0 8.637,-3.412 9.426,-7.903 0.194,-1.1 0.194,-2.238 0,-3.338 V 23.81 h -18.852 v 15.309 c -0.194,1.1 -0.194,2.238 0,3.338 m -44.569,33.342 8.846,5.154 44.813,26.116 22.32,-12.608 0.354,1.225 c -3.754,-16.267 -2.144,-35.715 7.792,-50.779 v -0.011 c 0.128,-0.195 0.257,-0.388 0.388,-0.581 l 0.011,-0.015 c 0.321,-0.474 0.652,-0.942 0.99,-1.406 l 0.004,-0.006 c 0.34,-0.465 0.689,-0.927 1.047,-1.383 l 0.001,-0.002 c 0.358,-0.457 0.724,-0.908 1.099,-1.354 l 0.002,-0.002 c 0.358,-0.426 0.724,-0.847 1.098,-1.263 l 0.003,-10e-4 c 0.017,-0.021 0.035,-0.041 0.053,-0.061 l 0.035,0.042 c 0.385,-0.078 0.784,-0.12 1.192,-0.12 3.274,0 5.928,2.654 5.928,5.928 0,0.793 -0.156,1.55 -0.439,2.241 l 0.047,0.057 c -0.447,0.457 -0.882,0.938 -1.303,1.44 l -0.003,0.003 c -13.077,15.591 -13.588,52.17 6.472,68.344 -6.209,-13.693 -5.452,-30.421 2.033,-42.227 4.712,-6.896 7.265,-21.872 6.731,-48.392 -0.898,-0.776 -1.796,-1.552 -2.694,-2.328 h -32.608 v 16.978 c 0,0.88 -0.056,1.747 -0.165,2.597 -1.275,9.939 -9.767,17.62 -20.052,17.62 -10.285,0 -18.777,-7.681 -20.051,-17.62 -0.11,-0.85 -0.166,-1.717 -0.166,-2.597 V 23.81 h -24.932 v 0.002 l -9.772,0.098 -0.314,51.166 z m 114.37,43.658 c 27.908,-8.879 27.015,-63.126 5.257,-77.514 -0.093,12.452 -0.96,24.803 -6.91,36.504 -7.265,10.946 -8.096,27.055 1.653,41.01 M 12.657,19.636 v 0.002 c -0.004,0.034 -0.009,0.069 -0.014,0.103 l -0.003,0.018 -0.016,0.095 -0.006,0.032 -0.016,0.086 -0.006,0.026 -0.02,0.096 -0.003,0.014 -0.001,0.002 -0.005,0.022 -0.021,0.084 -0.009,0.035 -0.021,0.079 -0.009,0.03 -0.026,0.09 -0.005,0.015 -0.002,0.008 -0.034,0.102 -0.006,0.02 -0.031,0.088 -0.01,0.026 -0.031,0.083 -0.009,0.023 c -0.028,0.069 -0.056,0.137 -0.087,0.205 l -0.012,0.027 -0.038,0.08 -0.009,0.02 c -0.017,0.034 -0.033,0.068 -0.051,0.101 v 0.002 l -0.05,0.093 -0.016,0.032 -0.041,0.072 -0.013,0.022 -0.044,0.075 -0.011,0.018 -0.006,0.01 c -0.018,0.029 -0.036,0.058 -0.054,0.086 l -0.015,0.023 -0.043,0.066 -0.024,0.035 -0.04,0.058 -0.021,0.03 -0.061,0.083 -0.004,0.005 -0.011,0.015 -0.053,0.069 -0.022,0.029 -0.05,0.061 -0.017,0.021 -0.059,0.07 -0.011,0.013 -0.004,0.004 c -0.023,0.027 -0.046,0.053 -0.07,0.079 l -0.021,0.023 -0.05,0.054 -0.031,0.032 -0.045,0.047 -0.03,0.03 c -0.025,0.025 -0.051,0.05 -0.077,0.075 l -0.006,0.005 c -0.024,0.023 -0.049,0.047 -0.074,0.069 l -0.017,0.016 -0.066,0.058 -0.024,0.021 -0.052,0.045 -0.053,0.043 -0.062,0.051 -0.02,0.015 -0.068,0.052 -0.022,0.017 c -0.028,0.02 -0.056,0.04 -0.084,0.061 l -0.004,0.003 -0.006,0.004 c -0.029,0.02 -0.058,0.04 -0.087,0.06 l -0.019,0.013 -0.074,0.048 -0.025,0.017 -0.068,0.042 -0.03,0.018 -0.006,0.004 -0.079,0.047 -0.009,0.005 -0.015,0.008 -0.078,0.044 -0.029,0.015 -0.073,0.039 -0.024,0.012 -0.086,0.043 -0.013,0.007 H 9.888 L 9.875,23.468 9.788,23.509 9.764,23.52 9.682,23.556 9.659,23.565 9.562,23.605 9.555,23.607 C 9.52,23.622 9.483,23.635 9.446,23.649 l -0.012,0.005 -0.092,0.031 -0.03,0.011 -0.086,0.027 -0.018,0.006 C 9.173,23.74 9.138,23.751 9.102,23.761 L 9.096,23.763 9.079,23.767 8.994,23.791 8.951,23.801 8.919,23.81 H 8.918 C 8.54,23.902 8.144,23.951 7.737,23.951 7.33,23.951 6.935,23.902 6.557,23.81 H -14.99 c 0.15,2.362 0.299,4.724 0.449,7.087 22.17,12.877 30.569,34.608 25.38,65.073 -7.363,27.977 -30.674,40.754 -47.764,30.396 -8.248,-3.293 -14.981,-12.187 -18.959,-23.507 l 0.589,2.038 -22.839,12.735 c -1.858,0.785 -3.48,0.814 -5.155,-0.176 l -42.155,-24.331 -9.772,-5.64 -8.017,-4.628 c -1.799,-1 -3.038,-2.387 -2.966,-4.343 l 0.431,-54.604 h -18.052 l -9.771,-0.118 0.016,-5.021 c 0.166,-51.428 41.69,-93.119 93.118,-93.119 51.293,0 92.899,41.471 93.117,92.713 v 0 c 0.026,0.205 0.039,0.413 0.039,0.624 0,0.22 -0.014,0.435 -0.042,0.647"
       style="fill:#ffffff;fill-opacity:1;fill-rule:evenodd;stroke:none"
       transform="matrix(1.3333333,0,0,-1.3333333,1901.2891,1278.5805)"
       clip-path="url(#clipPath77)" />
  </g>
</svg>
